<svg xmlns="http://www.w3.org/2000/svg" xmlns:xlink="http://www.w3.org/1999/xlink" width="436" height="435" viewBox="0 0 436 435">
    <defs>
        <filter id="a" width="117.1%" height="117.2%" x="-8.6%" y="-8.6%" filterUnits="objectBoundingBox">
            <feOffset dy="4" in="SourceAlpha" result="shadowOffsetOuter1"/>
            <feGaussianBlur in="shadowOffsetOuter1" result="shadowBlurOuter1" stdDeviation="7"/>
            <feColorMatrix in="shadowBlurOuter1" result="shadowMatrixOuter1" values="0 0 0 0 0 0 0 0 0 0 0 0 0 0 0 0 0 0 0.2 0"/>
            <feMerge>
                <feMergeNode in="shadowMatrixOuter1"/>
                <feMergeNode in="SourceGraphic"/>
            </feMerge>
        </filter>
        <path id="b" d="M0 .9h407.52v407.7H0z"/>
    </defs>
    <g fill="none" fill-rule="evenodd" opacity=".887">
        <g filter="url(#a)" transform="translate(14 8.9)">
            <mask id="c" fill="#fff">
                <use xlink:href="#b"/>
            </mask>
            <path fill="#FFF" d="M396.721 408.6c5.94 0 10.8-4.859 10.8-10.8V204.658C407.521 92.16 316.261.9 203.76.9 91.26.9.001 92.16.001 204.66-.18 316.981 90.359 407.881 202.32 408.6h194.4z" mask="url(#c)"/>
        </g>
        <path fill="#DB0011" d="M395.565 401.625c5.4 0 9.9-4.5 9.9-9.9v-179.28c0-104.58-84.782-189.18-189.18-189.18-104.4-.18-189.18 84.6-189.18 189 0 104.04 84.06 188.64 188.1 189.18 0 0 60.12 0 180.36.18"/>
        <path fill="#FFF" d="M389.265 387.764c1.44 0 2.518-1.08 2.518-2.518V340.424c0-26.1-21.238-47.34-47.338-47.34s-47.34 21.24-47.34 47.34c0 26.1 21.06 47.16 46.978 47.34h45.182z"/>
        <path fill="#DB0011" fill-rule="nonzero" d="M328.21 342.118v-6.578h-6.663v6.578h-3.342v-15.391h3.342v6.301h6.663v-6.301h3.343v15.391h-3.343zm8.92-4.768c-.021 1.618.66 3.15 2.47 3.15 1.256 0 1.98-.617 2.15-1.873h3.023c-.383 2.789-2.704 3.726-5.216 3.726-3.47 0-5.45-1.959-5.45-5.429 0-3.576 1.874-5.833 5.557-5.833 2.086 0 3.917.851 4.747 2.853.447 1.043.468 2.128.468 3.406h-7.749zm4.748-1.788c0-1.618-.745-2.64-2.236-2.64-1.532 0-2.448 1.107-2.448 2.64h4.684zm12.134-1.512a7.42 7.42 0 0 0-.937-.064c-2 0-2.788 1.15-2.788 3.066v5.066h-3.108v-8.11c0-.852-.086-1.725-.086-2.619h3.002l.085 1.98c.703-1.405 1.767-2.044 3.321-2.044.17 0 .32 0 .511.021v2.704zm3.385 3.3c-.021 1.618.66 3.15 2.47 3.15 1.256 0 1.98-.617 2.15-1.873h3.023c-.384 2.789-2.704 3.726-5.216 3.726-3.47 0-5.45-1.959-5.45-5.429 0-3.576 1.873-5.833 5.556-5.833 2.087 0 3.918.851 4.748 2.853.447 1.043.468 2.128.468 3.406h-7.749zm4.747-1.788c0-1.618-.745-2.64-2.235-2.64-1.533 0-2.448 1.107-2.448 2.64h4.683zm5.6 6.556v-2.725h3.044v2.725h-3.045z"/>
        <path fill="#FFF" d="M217.137 173.74h-14.4v-14.4c0-7.92 6.48-14.4 14.4-14.4 7.918 0 14.4 6.48 14.4 14.4s-6.3 14.4-14.4 14.4m0-31.5c-9.54 0-17.1 7.56-17.1 17.1V175c0 .72.54 1.44 1.44 1.44h15.66c9.54 0 17.1-7.56 17.1-17.1 0-9.54-7.56-17.1-17.1-17.1"/>
        <path fill="#FFF" d="M216.416 186.7c-6.48 0-22.86 0-28.26.18 0-5.22-.18-20.52-.18-27.54 0-15.12 12.78-27.36 28.44-27.36 15.66 0 28.44 12.24 28.44 27.36s-12.78 27.36-28.44 27.36m0-58.32c-17.64 0-32.04 13.86-32.04 30.96 0 8.46.18 29.16.18 29.34 0 .9.9 1.8 1.8 1.8.18 0 22.32-.18 30.06-.18 17.64 0 32.04-13.86 32.04-30.96s-14.4-30.96-32.04-30.96"/>
        <path fill="#FFF" d="M216.416 200.92c-9.9 0-35.28.18-42.3.18 0-6.84-.18-30.96-.18-41.58 0-22.86 19.08-41.4 42.48-41.4s42.482 18.54 42.482 41.4c0 22.68-19.082 41.4-42.482 41.4m0-86.58c-25.38 0-46.08 20.16-46.08 45 0 9.54.18 30.24.18 39.06v41.4c0 1.08.9 1.8 1.8 1.8 1.08 0 1.8-.72 1.8-1.8v-35.28c6.84 0 32.4-.18 42.3-.18 25.382 0 46.082-20.16 46.082-45s-20.7-45-46.082-45"/>
        <path fill="#FFF" d="M216.776 213.34h-30.06l-.36.18c-.72.18-1.26.9-1.26 1.62 0 .9-.36 21.6-.36 25.02 0 .18-.54 11.7-12.78 11.7-11.34 0-11.7-12.24-11.7-12.24v-24.3c0-.36-.18-40.86-.18-57.24 0-30.42 25.56-55.26 56.88-55.26 31.32 0 56.88 24.84 56.88 55.26 0 30.6-25.56 55.26-57.06 55.26m0-114.12c-33.3 0-60.48 26.46-60.48 58.86 0 16.38.18 56.88.18 57.24v24.3c0 4.14 2.88 15.84 15.48 15.84 13.5 0 16.56-11.34 16.56-15.3 0-2.88.18-18.18.18-23.22h28.08c33.3 0 60.481-26.46 60.481-58.86.18-32.4-27-58.86-60.48-58.86M191.756 295.24c-.18-.9-.36-1.982-.36-2.882-1.62 2.34-3.96 3.24-6.84 3.24-3.78 0-7.2-1.8-7.2-5.94 0-5.938 6.66-6.66 11.7-6.66h1.98v-1.258c0-3.06-1.08-4.86-4.5-4.86-2.52 0-3.96.9-4.14 3.6h-3.6c.18-4.322 3.78-5.76 7.56-5.76 5.22 0 7.74 1.978 7.74 7.2v7.378c0 2.7.36 5.042.72 5.942h-3.06zm-2.52-10.082c-3.06 0-8.28.362-8.28 4.5 0 2.522 2.16 3.782 4.5 3.782 5.04 0 5.58-4.142 5.58-8.1-.9-.182-1.26-.182-1.8-.182zM206.337 302.799h-3.6l3.42-7.559-8.64-19.981h3.96l6.48 16.381 6.3-16.381h3.6zM249.537 295.24v-25.92l-10.26 25.92h-3.422l-10.258-25.92v25.92h-3.42v-28.8h6.12l9.54 24.48 9.36-24.48h5.94v28.8zM170.696 282.28c-1.44.54-3.42.718-5.22.718h-5.4v12.242h-3.78v-28.8h9c2.52 0 5.04 0 7.2 1.44 2.34 1.44 3.42 4.14 3.42 6.84.18 3.6-1.8 6.3-5.22 7.56m-5.58-12.96h-5.04v10.8h3.96c4.14 0 7.92-.722 7.92-5.58.18-4.32-3.06-5.22-6.84-5.22M262.497 285.88v.36c0 3.78 1.98 7.02 6.118 7.02 2.882 0 4.862-1.8 5.222-4.5h3.418c-.718 4.68-4.318 6.838-8.818 6.838-6.3 0-9.36-4.138-9.36-10.078 0-5.94 3.06-10.8 9.72-10.8 6.84 0 8.64 5.22 8.64 10.978h-14.94v.182zm5.94-8.64c-3.782 0-5.582 3.058-5.94 6.3h11.34c0-3.242-1.622-6.3-5.4-6.3zM207.776 312.699h2.52v.541h-1.62v1.259h1.62v.72h-1.62v1.8h-.9zM211.016 314.859v-1.08h.54v.54c.18-.36.54-.72.72-.72h.18v.72h-.18c-.36 0-.54.18-.72.54v1.8h-.72v-1.8h.18zM216.237 315.399c0 1.081-.9 1.62-1.62 1.62-.9 0-1.62-.539-1.62-1.62 0-1.08.72-1.619 1.62-1.619.9 0 1.62.719 1.62 1.619m-2.52 0c0 .541.36 1.081.72 1.081.54 0 .72-.361.72-1.081 0-.54-.18-1.08-.72-1.08-.36 0-.72.54-.72 1.08M216.776 314.859v-.9h.72v.54c.18-.18.36-.54.9-.54.36 0 .72.182.9.54.18-.18.18-.358.36-.358.18-.182.36-.182.72-.182.54 0 1.08.36 1.08 1.44v1.8h-.72v-1.8c0-.54-.18-.9-.54-.9-.36 0-.54.18-.54.36v1.982h-.72v-1.8c0-.362-.18-.722-.54-.722-.36 0-.54.18-.54.36v1.98h-.72v-1.8h-.36zM204.176 324.759l-12.06-11.88v23.58z"/>
        <path fill="#FFF" d="M180.237 324.759l11.88-11.88h-23.94zM156.296 324.759l11.88 11.7v-23.58zM180.237 324.759l-12.06 11.7h23.94zM214.616 325.48h-4.32v4.14h-2.16v-9.9h2.16v4.14h4.32v-4.14h2.16v9.9h-2.16zM221.997 329.799c-2.16 0-3.96-.9-3.96-3.24h2.16c0 1.081.718 1.621 1.8 1.621.9 0 1.8-.361 1.8-1.44 0-.721-.72-1.081-1.8-1.26l-.72-.181c-1.622-.54-3.062-1.08-3.062-2.88 0-2.16 2.162-2.879 3.962-2.879 1.978 0 3.6.719 3.6 2.879h-2.162c0-.9-.538-1.439-1.618-1.439-.72 0-1.62.36-1.62 1.26 0 .719.72.9 2.16 1.44l.9.179c1.8.54 2.878 1.081 2.878 2.7-.178 2.34-2.338 3.24-4.318 3.24M227.397 319.72h3.418c1.082 0 1.622 0 1.982.18 1.258.36 2.158 1.08 2.158 2.34 0 1.26-.9 1.98-1.978 2.16 1.438.18 2.338.9 2.338 2.34 0 2.16-2.16 2.7-3.96 2.7h-3.958v-9.72zm3.418 4.14c.9 0 1.982-.18 1.982-1.26s-.9-1.26-1.8-1.26h-1.442v2.7h1.26v-.18zm.182 4.32c1.08 0 1.98-.18 1.98-1.44s-.9-1.44-1.8-1.44h-1.8v2.88h1.62zM240.897 329.799c-3.242 0-4.682-1.98-4.682-5.04s1.622-5.219 4.862-5.219c1.978 0 3.96.9 3.96 3.059h-2.16c-.18-.9-.722-1.44-1.8-1.44-1.98 0-2.522 2.16-2.522 3.6 0 1.621.542 3.421 2.522 3.421.9 0 1.62-.54 1.8-1.44h2.338c-.36 2.159-2.16 3.059-4.318 3.059"/>
    </g>
</svg>
